<?xml version="1.0" encoding="UTF-8"?>
<!DOCTYPE svg PUBLIC "-//W3C//DTD SVG 1.1//EN" "http://www.w3.org/Graphics/SVG/1.1/DTD/svg11.dtd">
<svg xmlns="http://www.w3.org/2000/svg" version="1.1" width="100px" height="100px" style="shape-rendering:geometricPrecision; text-rendering:geometricPrecision; image-rendering:optimizeQuality; fill-rule:evenodd; clip-rule:evenodd" xmlns:xlink="http://www.w3.org/1999/xlink">
<g><path style="opacity:0.67" fill="#2f6444" d="M 95.5,58.5 C 94.3555,65.7861 91.3555,72.1195 86.5,77.5C 86.1667,76.1667 85.8333,76.1667 85.5,77.5C 84.8333,77.5 84.5,77.8333 84.5,78.5C 83.8333,78.5 83.5,78.8333 83.5,79.5C 82.8333,79.5 82.5,79.8333 82.5,80.5C 81.8333,80.5 81.5,80.8333 81.5,81.5C 80.8333,81.5 80.5,81.8333 80.5,82.5C 79.8333,82.5 79.5,82.8333 79.5,83.5C 78.8333,83.5 78.5,83.8333 78.5,84.5C 77.8333,84.5 77.5,84.8333 77.5,85.5C 76.8333,85.5 76.5,85.8333 76.5,86.5C 75.5084,86.3284 74.8417,86.6618 74.5,87.5C 73.8333,87.5 73.5,87.8333 73.5,88.5C 72.5084,88.3284 71.8417,88.6618 71.5,89.5C 70.5084,89.3284 69.8417,89.6618 69.5,90.5C 68.5084,90.3284 67.8417,90.6618 67.5,91.5C 66.5084,91.3284 65.8417,91.6618 65.5,92.5C 64.209,92.2627 63.209,92.596 62.5,93.5C 60.901,93.2322 59.5676,93.5655 58.5,94.5C 48.941,95.1748 39.6077,94.1748 30.5,91.5C 28.4275,89.4427 26.0941,88.6093 23.5,89C 24.4581,87.8525 24.1247,86.8525 22.5,86C 19.0354,83.5374 15.8688,80.7041 13,77.5C 12.3333,78.8333 11.6667,78.8333 11,77.5C 1.88786,65.9279 -0.278811,53.0945 4.5,39C 3.06521,36.3777 3.23188,33.8777 5,31.5C 5.9836,33.7947 6.81694,33.4614 7.5,30.5C 6.67443,29.549 6.50776,28.549 7,27.5C 8.13128,28.6039 8.96461,28.2705 9.5,26.5C 9.17461,23.454 10.3413,20.7873 13,18.5C 13.3333,18.8333 13.6667,19.1667 14,19.5C 29.0316,3.75773 46.865,-0.408937 67.5,7C 74.3258,10.1686 80.1591,14.6686 85,20.5C 85.6667,19.1667 86.3333,19.1667 87,20.5C 90.4158,24.8308 92.9158,29.6642 94.5,35C 94.1667,36 93.8333,37 93.5,38C 94.1154,44.9766 94.7821,51.8099 95.5,58.5 Z"/></g>
<g><path style="opacity:1" fill="#f6f9f6" d="M 42.5,7.5 C 67.9202,6.43608 83.7536,18.1028 90,42.5C 92.0245,68.1438 80.5245,83.9771 55.5,90C 30.2131,91.5998 14.3797,80.0998 8,55.5C 6.14279,38.0508 12.3095,24.2174 26.5,14C 31.6069,10.9354 36.9402,8.76876 42.5,7.5 Z"/></g>
<g><path style="opacity:1" fill="#71c141" d="M 42.5,14.5 C 70.0004,13.8358 83.8338,27.1691 84,54.5C 81.06,70.1076 71.8933,79.9409 56.5,84C 35.6477,86.1573 21.8144,77.3239 15,57.5C 12.5952,35.621 21.7619,21.2877 42.5,14.5 Z"/></g>
<g><path style="opacity:1" fill="#fcfdfb" d="M 34.5,33.5 C 38.5,33.5 42.5,33.5 46.5,33.5C 46.5,30.5 46.5,27.5 46.5,24.5C 47.4551,22.2901 48.9551,21.9568 51,23.5C 51.498,26.4816 51.6646,29.4816 51.5,32.5C 55.5138,32.3345 59.5138,32.5012 63.5,33C 67.655,34.8107 69.655,37.9774 69.5,42.5C 55.8333,42.5 42.1667,42.5 28.5,42.5C 28.2644,37.9625 30.2644,34.9625 34.5,33.5 Z"/></g>
<g><path style="opacity:1" fill="#dbefce" d="M 46.5,24.5 C 46.5,27.5 46.5,30.5 46.5,33.5C 42.5,33.5 38.5,33.5 34.5,33.5C 37.9619,32.5184 41.6286,32.185 45.5,32.5C 45.1936,29.6146 45.5269,26.9479 46.5,24.5 Z"/></g>
<g><path style="opacity:0.011" fill="#2d6342" d="M 95.5,58.5 C 95.3338,52.1579 95.5005,45.8246 96,39.5C 96.82,46.0137 96.6533,52.3471 95.5,58.5 Z"/></g>
<g><path style="opacity:1" fill="#93cf6d" d="M 66.5,46.5 C 55.1667,46.5 43.8333,46.5 32.5,46.5C 32.5,48.5 32.5,50.5 32.5,52.5C 31.5318,50.3926 31.1984,48.0593 31.5,45.5C 43.3453,45.1717 55.012,45.5051 66.5,46.5 Z"/></g>
<g><path style="opacity:1" fill="#fcfdfb" d="M 66.5,46.5 C 66.1951,59.4602 60.5284,69.1269 49.5,75.5C 39.6381,70.9667 33.9714,63.3 32.5,52.5C 32.5,50.5 32.5,48.5 32.5,46.5C 43.8333,46.5 55.1667,46.5 66.5,46.5 Z"/></g>
<g><path style="opacity:1" fill="#84c854" d="M 58.5,49.5 C 59.8333,49.5 61.1667,49.5 62.5,49.5C 61.5643,57.822 58.0643,64.822 52,70.5C 53.8458,67.1262 55.5125,63.4595 57,59.5C 57.4552,56.1464 57.9552,52.8131 58.5,49.5 Z"/></g>
<g><path style="opacity:0.012" fill="#2d6342" d="M 85.5,77.5 C 85.8333,77.5 86.1667,77.5 86.5,77.5C 86.3147,78.1701 85.9813,78.1701 85.5,77.5 Z"/></g>
<g><path style="opacity:0.016" fill="#2d6342" d="M 84.5,78.5 C 84.8333,78.5 85.1667,78.5 85.5,78.5C 85.3147,79.1701 84.9813,79.1701 84.5,78.5 Z"/></g>
<g><path style="opacity:0.02" fill="#2d6342" d="M 83.5,79.5 C 83.8333,79.5 84.1667,79.5 84.5,79.5C 84.3147,80.1701 83.9813,80.1701 83.5,79.5 Z"/></g>
<g><path style="opacity:0.008" fill="#2d6243" d="M 82.5,80.5 C 82.8333,80.5 83.1667,80.5 83.5,80.5C 83.1667,82.8333 81.8333,84.1667 79.5,84.5C 79.5,84.1667 79.5,83.8333 79.5,83.5C 80.1667,83.5 80.5,83.1667 80.5,82.5C 81.1667,82.5 81.5,82.1667 81.5,81.5C 82.1667,81.5 82.5,81.1667 82.5,80.5 Z"/></g>
<g><path style="opacity:0.016" fill="#2c6342" d="M 78.5,84.5 C 78.8333,84.5 79.1667,84.5 79.5,84.5C 79.3147,85.1701 78.9813,85.1701 78.5,84.5 Z"/></g>
<g><path style="opacity:0.016" fill="#2d6342" d="M 77.5,85.5 C 77.8333,85.5 78.1667,85.5 78.5,85.5C 78.3147,86.1701 77.9813,86.1701 77.5,85.5 Z"/></g>
<g><path style="opacity:0.012" fill="#2d6342" d="M 76.5,86.5 C 76.8333,86.5 77.1667,86.5 77.5,86.5C 77.3147,87.1701 76.9813,87.1701 76.5,86.5 Z"/></g>
<g><path style="opacity:0.01" fill="#2d6342" d="M 74.5,88.5 C 74.5,88.1667 74.5,87.8333 74.5,87.5C 75.1667,87.5 75.8333,87.5 76.5,87.5C 76.1583,88.3382 75.4916,88.6716 74.5,88.5 Z"/></g>
<g><path style="opacity:0.012" fill="#2d6342" d="M 73.5,88.5 C 73.8333,88.5 74.1667,88.5 74.5,88.5C 74.3147,89.1701 73.9813,89.1701 73.5,88.5 Z"/></g>
<g><path style="opacity:0.01" fill="#2d6242" d="M 71.5,90.5 C 71.5,90.1667 71.5,89.8333 71.5,89.5C 72.1667,89.5 72.8333,89.5 73.5,89.5C 73.1583,90.3382 72.4916,90.6716 71.5,90.5 Z"/></g>
<g><path style="opacity:0.008" fill="#2d6342" d="M 69.5,91.5 C 69.5,91.1667 69.5,90.8333 69.5,90.5C 70.1667,90.5 70.8333,90.5 71.5,90.5C 71.1583,91.3382 70.4916,91.6716 69.5,91.5 Z"/></g>
<g><path style="opacity:0.008" fill="#2d6342" d="M 30.5,91.5 C 30.5,91.8333 30.5,92.1667 30.5,92.5C 27.8333,92.1667 27.8333,91.8333 30.5,91.5 Z"/></g>
<g><path style="opacity:0.01" fill="#2d6342" d="M 67.5,92.5 C 67.5,92.1667 67.5,91.8333 67.5,91.5C 68.1667,91.5 68.8333,91.5 69.5,91.5C 69.1583,92.3382 68.4916,92.6716 67.5,92.5 Z"/></g>
<g><path style="opacity:0.01" fill="#2d6342" d="M 30.5,92.5 C 31.2389,92.369 31.9056,92.5357 32.5,93C 31.5632,93.6917 30.8966,93.525 30.5,92.5 Z"/></g>
<g><path style="opacity:0.012" fill="#2d6342" d="M 65.5,93.5 C 65.5,93.1667 65.5,92.8333 65.5,92.5C 66.1667,92.5 66.8333,92.5 67.5,92.5C 67.1583,93.3382 66.4916,93.6716 65.5,93.5 Z"/></g>
<g><path style="opacity:0.009" fill="#2d6342" d="M 62.5,94.5 C 62.5,94.1667 62.5,93.8333 62.5,93.5C 63.5,93.5 64.5,93.5 65.5,93.5C 64.791,94.404 63.791,94.7373 62.5,94.5 Z"/></g>
<g><path style="opacity:0.012" fill="#2c6343" d="M 58.5,95.5 C 58.5,95.1667 58.5,94.8333 58.5,94.5C 59.8333,94.5 61.1667,94.5 62.5,94.5C 61.4324,95.4345 60.099,95.7678 58.5,95.5 Z"/></g>
<g><path style="opacity:0.011" fill="#2d6342" d="M 58.5,95.5 C 52.3471,96.6533 46.0137,96.82 39.5,96C 45.8246,95.5005 52.1579,95.3338 58.5,95.5 Z"/></g>
</svg>
